<?xml version="1.0" standalone="no"?>
<!DOCTYPE svg PUBLIC "-//W3C//DTD SVG 20010904//EN"
 "http://www.w3.org/TR/2001/REC-SVG-20010904/DTD/svg10.dtd">
<svg version="1.0" xmlns="http://www.w3.org/2000/svg"
 width="700.000000pt" height="700.000000pt" viewBox="0 0 700.000000 700.000000"
 preserveAspectRatio="xMidYMid meet">
<metadata>
Created by potrace 1.14, written by Peter Selinger 2001-2017
</metadata>
<g transform="translate(0.000000,700.000000) scale(0.100000,-0.100000)"
fill="#000000" stroke="none">
<path d="M3280 6994 c-19 -2 -84 -9 -145 -14 -578 -56 -1180 -283 -1660 -625
-237 -169 -531 -446 -709 -670 -416 -521 -673 -1147 -748 -1820 -17 -154 -17
-585 0 -730 69 -588 254 -1099 567 -1570 126 -189 242 -332 410 -504 580 -595
1295 -943 2140 -1043 145 -17 576 -17 730 0 822 91 1556 447 2131 1034 203
206 348 390 487 618 274 449 432 915 499 1465 16 135 16 591 0 730 -100 846
-447 1557 -1043 2141 -555 542 -1249 874 -2029 970 -117 15 -553 27 -630 18z
m-785 -1988 c118 -22 229 -50 340 -87 103 -35 374 -165 381 -183 4 -10 -61
-171 -231 -573 l-14 -32 -108 51 c-332 156 -719 223 -923 159 -105 -33 -162
-64 -202 -111 -99 -114 -68 -294 61 -360 49 -24 86 -34 301 -74 541 -103 899
-260 1116 -489 134 -141 194 -286 194 -468 0 -345 -242 -690 -602 -859 -115
-53 -273 -105 -388 -126 -140 -26 -587 -26 -755 0 -144 22 -349 73 -462 115
-156 58 -393 175 -393 194 0 15 221 600 231 611 4 5 63 -16 132 -47 205 -92
492 -180 672 -207 155 -22 400 -5 515 35 111 39 163 105 163 206 -1 68 -19
106 -74 152 -56 49 -138 77 -447 153 -260 64 -552 147 -700 198 -104 36 -186
89 -272 176 -148 151 -216 314 -227 545 -9 187 26 351 104 485 49 83 207 244
298 303 203 129 444 219 666 246 118 15 519 6 624 -13z m2959 -5 c221 -45 477
-150 656 -269 90 -60 269 -207 277 -228 5 -13 -59 -83 -403 -443 l-91 -96 -34
28 c-222 181 -375 257 -595 293 -114 19 -248 14 -334 -12 -280 -83 -528 -355
-601 -661 -30 -124 -23 -313 15 -426 106 -317 368 -557 663 -608 250 -44 620
82 840 284 l43 39 250 -242 c137 -134 250 -246 250 -249 0 -9 -147 -151 -205
-198 -122 -99 -309 -204 -475 -268 -325 -126 -714 -148 -1053 -60 -313 82
-547 213 -763 429 -365 366 -543 899 -455 1363 134 702 641 1205 1346 1334
147 27 514 21 669 -10z"/>
</g>
</svg>
